<svg xmlns="http://www.w3.org/2000/svg" viewBox="0 0 800 520" font-family="system-ui, -apple-system, sans-serif">
  <defs>
    <linearGradient id="bg3" x1="0%" y1="0%" x2="100%" y2="100%">
      <stop offset="0%" style="stop-color:#f8fafc;stop-opacity:1"/>
      <stop offset="100%" style="stop-color:#e2e8f0;stop-opacity:1"/>
    </linearGradient>
    <filter id="shadow3" x="-5%" y="-5%" width="110%" height="115%">
      <feDropShadow dx="0" dy="2" stdDeviation="3" flood-opacity="0.15"/>
    </filter>
  </defs>

  <!-- Background -->
  <rect width="800" height="520" rx="16" fill="url(#bg3)"/>

  <!-- Title -->
  <text x="400" y="36" text-anchor="middle" font-size="20" font-weight="700" fill="#1e293b">GangDan Feature Map</text>

  <!-- Knowledge Management Section -->
  <rect x="30" y="60" width="370" height="220" rx="12" fill="#eff6ff" stroke="#93c5fd" stroke-width="1.5"/>
  <text x="215" y="88" text-anchor="middle" font-size="16" font-weight="700" fill="#1d4ed8">Knowledge Management</text>

  <!-- KM Features -->
  <rect x="50" y="100" width="150" height="32" rx="6" fill="#3b82f6" filter="url(#shadow3)"/>
  <text x="125" y="121" text-anchor="middle" font-size="11" font-weight="500" fill="white">Unified Literature Search</text>

  <rect x="215" y="100" width="150" height="32" rx="6" fill="#3b82f6" filter="url(#shadow3)"/>
  <text x="290" y="121" text-anchor="middle" font-size="11" font-weight="500" fill="white">Batch Operations</text>

  <rect x="50" y="140" width="150" height="32" rx="6" fill="#3b82f6" filter="url(#shadow3)"/>
  <text x="125" y="161" text-anchor="middle" font-size="11" font-weight="500" fill="white">Smart Renaming</text>

  <rect x="215" y="140" width="150" height="32" rx="6" fill="#3b82f6" filter="url(#shadow3)"/>
  <text x="290" y="161" text-anchor="middle" font-size="11" font-weight="500" fill="white">LLM-Generated Wiki</text>

  <rect x="50" y="180" width="150" height="32" rx="6" fill="#3b82f6" filter="url(#shadow3)"/>
  <text x="125" y="201" text-anchor="middle" font-size="11" font-weight="500" fill="white">Image Gallery</text>

  <rect x="215" y="180" width="150" height="32" rx="6" fill="#3b82f6" filter="url(#shadow3)"/>
  <text x="290" y="201" text-anchor="middle" font-size="11" font-weight="500" fill="white">Document Manager</text>

  <rect x="50" y="220" width="150" height="32" rx="6" fill="#3b82f6" filter="url(#shadow3)"/>
  <text x="125" y="241" text-anchor="middle" font-size="11" font-weight="500" fill="white">Custom KB Upload</text>

  <rect x="215" y="220" width="150" height="32" rx="6" fill="#3b82f6" filter="url(#shadow3)"/>
  <text x="290" y="241" text-anchor="middle" font-size="11" font-weight="500" fill="white">Cross-KB Concept Link</text>

  <!-- Teaching Assistant Section -->
  <rect x="420" y="60" width="350" height="220" rx="12" fill="#fdf4ff" stroke="#e879f9" stroke-width="1.5"/>
  <text x="595" y="88" text-anchor="middle" font-size="16" font-weight="700" fill="#a21caf">Teaching Assistant</text>

  <!-- TA Features -->
  <rect x="440" y="100" width="145" height="32" rx="6" fill="#d946ef" filter="url(#shadow3)"/>
  <text x="512" y="121" text-anchor="middle" font-size="11" font-weight="500" fill="white">Question Generator</text>

  <rect x="600" y="100" width="145" height="32" rx="6" fill="#d946ef" filter="url(#shadow3)"/>
  <text x="672" y="121" text-anchor="middle" font-size="11" font-weight="500" fill="white">Guided Learning</text>

  <rect x="440" y="140" width="145" height="32" rx="6" fill="#d946ef" filter="url(#shadow3)"/>
  <text x="512" y="161" text-anchor="middle" font-size="11" font-weight="500" fill="white">Deep Research</text>

  <rect x="600" y="140" width="145" height="32" rx="6" fill="#d946ef" filter="url(#shadow3)"/>
  <text x="672" y="161" text-anchor="middle" font-size="11" font-weight="500" fill="white">Lecture Maker</text>

  <rect x="440" y="180" width="145" height="32" rx="6" fill="#d946ef" filter="url(#shadow3)"/>
  <text x="512" y="201" text-anchor="middle" font-size="11" font-weight="500" fill="white">Exam Generator</text>

  <rect x="600" y="180" width="145" height="32" rx="6" fill="#d946ef" filter="url(#shadow3)"/>
  <text x="672" y="201" text-anchor="middle" font-size="11" font-weight="500" fill="white">Paper Writer</text>

  <rect x="440" y="220" width="145" height="32" rx="6" fill="#d946ef" filter="url(#shadow3)"/>
  <text x="512" y="241" text-anchor="middle" font-size="11" font-weight="500" fill="white">Literature Review</text>

  <rect x="600" y="220" width="145" height="32" rx="6" fill="#d946ef" filter="url(#shadow3)"/>
  <text x="672" y="241" text-anchor="middle" font-size="11" font-weight="500" fill="white">Multi-Phase Research</text>

  <!-- Core Features Section -->
  <rect x="30" y="300" width="370" height="200" rx="12" fill="#f0fdf4" stroke="#86efac" stroke-width="1.5"/>
  <text x="215" y="328" text-anchor="middle" font-size="16" font-weight="700" fill="#15803d">Core Features</text>

  <!-- Core Features -->
  <rect x="50" y="340" width="150" height="32" rx="6" fill="#22c55e" filter="url(#shadow3)"/>
  <text x="125" y="361" text-anchor="middle" font-size="11" font-weight="500" fill="white">RAG Chat (Streaming)</text>

  <rect x="215" y="340" width="150" height="32" rx="6" fill="#22c55e" filter="url(#shadow3)"/>
  <text x="290" y="361" text-anchor="middle" font-size="11" font-weight="500" fill="white">Strict KB Mode</text>

  <rect x="50" y="380" width="150" height="32" rx="6" fill="#22c55e" filter="url(#shadow3)"/>
  <text x="125" y="401" text-anchor="middle" font-size="11" font-weight="500" fill="white">AI Command Assistant</text>

  <rect x="215" y="380" width="150" height="32" rx="6" fill="#22c55e" filter="url(#shadow3)"/>
  <text x="290" y="401" text-anchor="middle" font-size="11" font-weight="500" fill="white">Built-in Terminal</text>

  <rect x="50" y="420" width="150" height="32" rx="6" fill="#22c55e" filter="url(#shadow3)"/>
  <text x="125" y="441" text-anchor="middle" font-size="11" font-weight="500" fill="white">10-Language UI</text>

  <rect x="215" y="420" width="150" height="32" rx="6" fill="#22c55e" filter="url(#shadow3)"/>
  <text x="290" y="441" text-anchor="middle" font-size="11" font-weight="500" fill="white">Dark/Light Theme</text>

  <rect x="50" y="460" width="150" height="32" rx="6" fill="#22c55e" filter="url(#shadow3)"/>
  <text x="125" y="481" text-anchor="middle" font-size="11" font-weight="500" fill="white">Offline by Design</text>

  <rect x="215" y="460" width="150" height="32" rx="6" fill="#22c55e" filter="url(#shadow3)"/>
  <text x="290" y="481" text-anchor="middle" font-size="11" font-weight="500" fill="white">Conversation Save/Load</text>

  <!-- CLI Section -->
  <rect x="420" y="300" width="350" height="200" rx="12" fill="#fefce8" stroke="#fde047" stroke-width="1.5"/>
  <text x="595" y="328" text-anchor="middle" font-size="16" font-weight="700" fill="#a16207">CLI Interface</text>

  <!-- CLI Features -->
  <rect x="440" y="340" width="145" height="32" rx="6" fill="#eab308" filter="url(#shadow3)"/>
  <text x="512" y="361" text-anchor="middle" font-size="11" font-weight="500" fill="white">Streaming Chat</text>

  <rect x="600" y="340" width="145" height="32" rx="6" fill="#eab308" filter="url(#shadow3)"/>
  <text x="672" y="361" text-anchor="middle" font-size="11" font-weight="500" fill="white">Interactive REPL</text>

  <rect x="440" y="380" width="145" height="32" rx="6" fill="#eab308" filter="url(#shadow3)"/>
  <text x="512" y="401" text-anchor="middle" font-size="11" font-weight="500" fill="white">KB Operations</text>

  <rect x="600" y="380" width="145" height="32" rx="6" fill="#eab308" filter="url(#shadow3)"/>
  <text x="672" y="401" text-anchor="middle" font-size="11" font-weight="500" fill="white">Doc Management</text>

  <rect x="440" y="420" width="145" height="32" rx="6" fill="#eab308" filter="url(#shadow3)"/>
  <text x="512" y="441" text-anchor="middle" font-size="11" font-weight="500" fill="white">Config Management</text>

  <rect x="600" y="420" width="145" height="32" rx="6" fill="#eab308" filter="url(#shadow3)"/>
  <text x="672" y="441" text-anchor="middle" font-size="11" font-weight="500" fill="white">AI Command Gen</text>

  <rect x="440" y="460" width="145" height="32" rx="6" fill="#eab308" filter="url(#shadow3)"/>
  <text x="512" y="481" text-anchor="middle" font-size="11" font-weight="500" fill="white">Shell Execution</text>

  <rect x="600" y="460" width="145" height="32" rx="6" fill="#eab308" filter="url(#shadow3)"/>
  <text x="672" y="481" text-anchor="middle" font-size="11" font-weight="500" fill="white">Conversation Persist</text>
</svg>
